<svg width="586" height="120" viewBox="0 0 586 120" fill="none" xmlns="http://www.w3.org/2000/svg">
    <path d="M501.236 99.0297H488.231V35.0154H501.236V99.0297ZM585.444 67.0225C585.444 85.4783 569.811 100.449 550.631 100.449C531.32 100.449 515.818 85.4783 515.818 67.0225C515.818 48.5668 531.451 33.5957 550.631 33.5957C569.811 33.7248 585.444 48.5668 585.444 67.0225ZM550.631 88.0595C562.455 88.0595 571.913 78.638 571.913 67.0225C571.913 55.407 562.323 45.9856 550.631 45.9856C538.939 45.9856 529.349 55.407 529.349 67.0225C529.218 78.638 538.808 88.0595 550.631 88.0595ZM334.659 66.1191V99.0297H300.766C281.98 99.0297 266.741 84.4458 266.741 66.3772C266.741 48.3087 281.98 33.7248 300.766 33.7248C319.289 33.7248 334.397 48.1796 334.659 66.1191ZM321.523 66.6353C321.523 55.278 312.064 46.1146 300.635 46.1146C289.074 46.1146 279.747 55.407 279.747 66.6353C279.747 77.9927 289.206 87.1561 300.635 87.1561H321.523V66.6353ZM474.7 35.0154H419.262V46.5018H451.316L414.532 99.0297H472.729V87.5432H437.785L474.7 35.0154ZM251.765 14.8818H238.76V99.0297H251.765V14.8818ZM223.783 66.3772C223.783 84.4458 208.545 99.0297 189.759 99.0297C189.627 99.0297 189.496 99.0297 189.365 99.0297H168.739H155.865V66.5063C155.865 66.5063 155.865 66.5063 155.865 66.3772C155.865 66.2482 155.865 66.3772 155.865 66.2482V14.8818H168.871V38.5C168.871 40.3069 168.214 42.5009 168.214 42.5009C169.659 40.3069 173.732 37.0804 180.037 35.1444C183.19 34.241 186.474 33.7248 189.759 33.7248C208.545 33.7248 223.783 48.3087 223.783 66.3772ZM210.778 66.6353C210.778 55.278 201.319 46.1146 189.89 46.1146C178.329 46.1146 169.002 54.6327 169.002 63.6669V87.2851H189.89C201.319 87.1561 210.778 77.9927 210.778 66.6353ZM407.176 35.0154H351.738V46.5018H383.792L347.008 99.0297H405.205V87.5432H370.261L407.176 35.0154Z" fill="white"/>
    <path d="M9.58829 66.1544C9.58819 89.9629 25.4955 110.108 47.4647 116.981C48.1492 117.196 48.8399 116.689 48.8399 115.986V104.895C48.8399 101.921 47.1534 99.2436 44.791 97.3738C37.819 91.8558 33.3609 83.4163 33.3609 73.9577C33.3609 65.4382 36.9778 57.7454 42.7907 52.2696C32.3643 40.9869 17.6158 33.6018 1.10075 32.6153C0.24135 32.564 -0.290289 33.5017 0.169132 34.2143C6.3161 43.7491 9.591 54.7842 9.58829 66.1544Z" fill="url(#paint0_linear_208_5737)"/>
    <path d="M105.717 100.568C92.8631 100.473 81.0702 96.0135 71.8095 88.6288C71.1285 88.0857 70.084 88.5502 70.084 89.4099L70.084 118.005C70.084 118.633 70.6422 119.123 71.2789 119.041C85.0418 117.262 97.1845 110.455 105.717 100.568Z" fill="url(#paint1_linear_208_5737)"/>
    <path d="M84.7376 96.2916C91.1843 98.9947 98.2726 100.514 105.717 100.569C113.729 91.2853 118.559 79.2861 118.559 66.183C118.559 50.8238 111.923 36.9814 101.304 27.2518C101.304 27.2518 100.396 26.4411 99.8988 26.0085C79.3449 8.14225 51.5343 0.373222 24.4232 0H13.147C12.2291 0 11.7693 1.10463 12.4049 1.75274C22.5844 12.1334 28.9909 26.0683 29.4581 41.404C34.4148 44.3975 38.9032 48.0624 42.7907 52.2691C48.3202 47.0603 55.8369 43.8576 64.118 43.8576C81.1048 43.8576 94.8752 57.3337 94.8752 73.9573C94.8752 82.8175 90.9633 90.7835 84.7376 96.2916Z" fill="url(#paint2_linear_208_5737)"/>
    <defs>
        <linearGradient id="paint0_linear_208_5737" x1="32.274" y1="38.2772" x2="14.5743" y2="124.97" gradientUnits="userSpaceOnUse">
            <stop stop-color="#C895F7"/>
            <stop offset="1" stop-color="#6F2AE6"/>
        </linearGradient>
        <linearGradient id="paint1_linear_208_5737" x1="65.7612" y1="82.4486" x2="102.55" y2="130.032" gradientUnits="userSpaceOnUse">
            <stop stop-color="#C895F7"/>
            <stop offset="1" stop-color="#6F2AE6"/>
        </linearGradient>
        <linearGradient id="paint2_linear_208_5737" x1="91.6688" y1="-20.0089" x2="49.5245" y2="81.7129" gradientUnits="userSpaceOnUse">
            <stop stop-color="#C895F7"/>
            <stop offset="1" stop-color="#6F2AE6"/>
        </linearGradient>
    </defs>
</svg>
